<svg width="32" height="32" viewBox="0 0 32 32" fill="none" xmlns="http://www.w3.org/2000/svg">
<rect width="32" height="32" rx="16" fill="#9A9A9A"/>
<path d="M23.9088 10.3767C21.3355 8.45132 18.8703 8.50526 18.8703 8.50526L18.6183 8.79307C21.6775 9.71089 23.0991 11.0604 23.0991 11.0604C18.7224 8.65071 13.1474 8.66795 8.59499 11.0604C8.59499 11.0604 10.0705 9.63883 13.3097 8.72101L13.1297 8.50503C13.1297 8.50503 10.6824 8.4511 8.09121 10.3765C8.09121 10.3765 5.5 15.0372 5.5 20.7776C5.5 20.7776 7.01157 23.3688 10.9886 23.4948C10.9886 23.4948 11.6544 22.703 12.1942 22.0192C9.90872 21.3355 9.04506 19.9139 9.04506 19.9139C10.4808 20.8123 11.9327 21.3746 13.7418 21.7314C16.6854 22.3373 20.3467 21.7144 23.0812 19.9139C23.0812 19.9139 22.1815 21.3715 19.8241 22.0374C20.364 22.7032 21.0119 23.4769 21.0119 23.4769C24.9884 23.3511 26.5 20.7599 26.5 20.7778C26.5 15.0374 23.9088 10.3767 23.9088 10.3767ZM12.6438 19.1044C11.636 19.1044 10.8084 18.2226 10.8084 17.1249C10.882 14.4961 14.4242 14.5042 14.4795 17.1249C14.4793 18.2226 13.6695 19.1044 12.6438 19.1044ZM19.212 19.1044C18.2042 19.1044 17.3766 18.2226 17.3766 17.1249C17.4575 14.5012 20.9555 14.5 21.0477 17.1249C21.0475 18.2226 20.2377 19.1044 19.212 19.1044Z" fill="#121214"/>
</svg>
