<svg width="138" height="136" viewBox="0 0 138 136" fill="none" xmlns="http://www.w3.org/2000/svg">
<path d="M132.34 40.3575C147.239 74.4203 131.704 114.112 97.6412 129.011C63.5783 143.911 23.8866 128.376 8.98723 94.313C-5.91217 60.2502 9.62286 20.5585 43.6857 5.6591C77.7485 -9.24029 117.44 6.29473 132.34 40.3575Z" fill="url(#paint0_linear_315_2543)"/>
<path d="M43.871 47.6531C46.1637 52.8933 43.7742 58.9999 38.534 61.2925C33.2937 63.5852 27.1871 61.1957 24.8944 55.9555C22.6018 50.7153 24.9912 44.6087 30.2315 42.3161C35.4717 40.0234 41.5784 42.4129 43.871 47.6531Z" fill="url(#paint1_linear_315_2543)"/>
<path d="M107.176 19.056C108.494 20.9249 108.21 23.3938 106.541 24.5706C104.872 25.7473 102.451 25.1863 101.133 23.3175C99.8156 21.4486 100.1 18.9797 101.769 17.8029C103.438 16.6261 105.859 17.1872 107.176 19.056Z" fill="url(#paint2_linear_315_2543)"/>
<path d="M130.902 68.6154C132.951 69.3289 133.812 72.2053 132.825 75.0401C131.838 77.875 129.377 79.5947 127.328 78.8813C125.279 78.1678 124.418 75.2914 125.405 72.4566C126.392 69.6217 128.853 67.902 130.902 68.6154Z" fill="url(#paint3_linear_315_2543)"/>
<path d="M68.6997 2.45039C68.832 3.60605 66.5216 4.81953 63.5393 5.16077C60.557 5.50201 58.0322 4.84179 57.8999 3.68613C57.7677 2.53047 60.0781 1.31699 63.0604 0.97575C66.0427 0.63451 68.5675 1.29473 68.6997 2.45039Z" fill="url(#paint4_linear_315_2543)"/>
<path d="M93.9678 106.012C95.4143 113.544 89.3428 121.04 80.4068 122.757C71.4708 124.473 63.0541 119.758 61.6076 112.227C60.1611 104.695 66.2326 97.1982 75.1686 95.482C84.1046 93.7658 92.5213 98.4802 93.9678 106.012Z" fill="url(#paint5_linear_315_2543)"/>
<path d="M47.9472 2.96319C48.3962 3.88232 45.7191 6.11327 41.9675 7.94616C38.216 9.77905 34.8107 10.5198 34.3617 9.60066C33.9126 8.68153 36.5898 6.45058 40.3413 4.6177C44.0928 2.78481 47.4981 2.04406 47.9472 2.96319Z" fill="#9E0E17"/>
<path d="M48.5428 4.17079C49.3177 5.75683 46.9046 8.5284 43.1531 10.3613C39.4016 12.1942 35.7322 12.3943 34.9573 10.8082C34.1824 9.2222 36.5954 6.45062 40.3469 4.61774C44.0985 2.78486 47.7679 2.58476 48.5428 4.17079Z" fill="#9E0E17"/>
<path d="M45.806 3.1531C45.9366 3.42054 43.9126 4.67796 41.2851 5.96163C38.6577 7.24531 36.4218 8.06914 36.2911 7.80171C36.1605 7.53428 38.1845 6.27686 40.812 4.99318C43.4394 3.7095 45.6753 2.88567 45.806 3.1531Z" fill="#580509"/>
<path d="M1.01621 77.259C2.60878 76.7741 5.50438 81.6504 7.48371 88.1505C9.46305 94.6507 9.77658 100.313 8.18401 100.798C6.59144 101.283 3.69584 96.4068 1.71651 89.9067C-0.262828 83.4065 -0.576363 77.744 1.01621 77.259Z" fill="url(#paint6_linear_315_2543)"/>
<path d="M3.11123 76.6222C5.8593 75.7854 9.6916 80.3765 11.6709 86.8766C13.6502 93.3767 13.027 99.3244 10.2789 100.161C7.53084 100.998 3.69854 96.407 1.71924 89.9069C-0.260063 83.4068 0.363152 77.459 3.11123 76.6222Z" fill="url(#paint7_linear_315_2543)"/>
<path d="M0.766144 80.7579C1.22953 80.6168 2.72899 84.1929 4.11527 88.7454C5.50156 93.2978 6.24971 97.1026 5.78632 97.2437C5.32293 97.3848 3.82348 93.8087 2.43719 89.2563C1.05091 84.7039 0.302755 80.899 0.766144 80.7579Z" fill="#470609"/>
<path d="M57.7974 133.392C57.8598 132.51 63.4148 131.905 70.2049 132.04C76.995 132.175 82.4489 132.999 82.3865 133.88C82.3242 134.762 76.7692 135.367 69.9791 135.233C63.189 135.098 57.7351 134.274 57.7974 133.392Z" fill="url(#paint8_linear_315_2543)"/>
<path d="M57.8766 132.234C57.9842 130.713 63.5758 129.589 70.3659 129.723C77.1559 129.858 82.5731 131.201 82.4656 132.722C82.358 134.244 76.7663 135.368 69.9763 135.233C63.1862 135.098 57.769 133.755 57.8766 132.234Z" fill="url(#paint9_linear_315_2543)"/>
<path d="M61.0235 134.122C61.0416 133.866 64.9114 133.734 69.6669 133.829C74.4223 133.923 78.2627 134.208 78.2445 134.464C78.2264 134.721 74.3566 134.852 69.6012 134.758C64.8457 134.663 61.0054 134.379 61.0235 134.122Z" fill="#150303"/>
<path d="M127.741 105.107C126.418 104.504 127.339 99.6363 129.799 94.2344C132.259 88.8325 135.327 84.942 136.65 85.5447C137.974 86.1474 137.052 91.0151 134.592 96.417C132.132 101.819 129.065 105.709 127.741 105.107Z" fill="url(#paint10_linear_315_2543)"/>
<path d="M126.002 104.315C123.719 103.275 123.862 98.0529 126.322 92.651C128.782 87.2491 132.627 83.7131 134.911 84.7531C137.195 85.7932 137.052 91.0154 134.592 96.4173C132.132 101.819 128.286 105.355 126.002 104.315Z" fill="url(#paint11_linear_315_2543)"/>
<path d="M129.925 102.958C129.54 102.782 130.625 99.5733 132.348 95.79C134.071 92.0067 135.78 89.0819 136.165 89.2573C136.55 89.4327 135.466 92.6418 133.743 96.4251C132.019 100.208 130.31 103.133 129.925 102.958Z" fill="#130406"/>
<path d="M128.102 30.1355C127.353 30.6459 125.057 28.5824 122.974 25.5266C120.891 22.4709 119.809 19.5799 120.558 19.0695C121.306 18.5591 123.602 20.6226 125.685 23.6784C127.768 26.7342 128.85 29.6251 128.102 30.1355Z" fill="url(#paint12_linear_315_2543)"/>
<path d="M127.117 30.8063C125.826 31.687 123.089 29.9238 121.006 26.868C118.923 23.8122 118.281 20.621 119.573 19.7403C120.865 18.8595 123.601 20.6228 125.685 23.6786C127.768 26.7344 128.409 29.9256 127.117 30.8063Z" fill="url(#paint13_linear_315_2543)"/>
<path d="M127.664 28.278C127.446 28.4265 126.087 26.8119 124.628 24.6717C123.169 22.5315 122.163 20.6762 122.381 20.5277C122.599 20.3792 123.958 21.9937 125.417 24.1339C126.876 26.2741 127.882 28.1295 127.664 28.278Z" fill="#550407"/>
<path d="M86.1646 58.2778C86.1646 61.8527 83.2666 64.7507 79.6917 64.7507C76.1168 64.7507 73.2188 61.8527 73.2188 58.2778C73.2188 54.7029 76.1168 51.8049 79.6917 51.8049C83.2666 51.8049 86.1646 54.7029 86.1646 58.2778Z" fill="#780B12"/>
<path d="M30.237 105.574C28.6119 106.974 25.4031 105.913 23.0698 103.205C20.7365 100.497 20.1624 97.166 21.7874 95.766C23.4124 94.366 26.6213 95.4267 28.9546 98.1352C31.2879 100.844 31.862 104.174 30.237 105.574Z" fill="#650B12"/>
<path d="M80.9848 14.262C80.9848 16.4069 78.0868 18.1457 74.5119 18.1457C70.9371 18.1457 68.0391 16.4069 68.0391 14.262C68.0391 12.117 70.9371 10.3782 74.5119 10.3782C78.0868 10.3782 80.9848 12.117 80.9848 14.262Z" fill="#9B0E17"/>
<path d="M119.184 96.1579C120.594 97.7741 119.554 100.99 116.86 103.34C114.167 105.69 110.84 106.285 109.43 104.669C108.02 103.053 109.06 99.8374 111.754 97.4871C114.447 95.1367 117.774 94.5416 119.184 96.1579Z" fill="#4B090E"/>
<defs>
<linearGradient id="paint0_linear_315_2543" x1="43.6857" y1="5.65928" x2="97.6411" y2="129.012" gradientUnits="userSpaceOnUse">
<stop stop-color="#A00F18"/>
<stop offset="1" stop-color="#240508"/>
</linearGradient>
<linearGradient id="paint1_linear_315_2543" x1="30.2315" y1="42.3161" x2="38.5339" y2="61.2926" gradientUnits="userSpaceOnUse">
<stop stop-color="#1F080C"/>
<stop offset="1" stop-color="#88111B"/>
</linearGradient>
<linearGradient id="paint2_linear_315_2543" x1="101.769" y1="17.8029" x2="106.541" y2="24.5705" gradientUnits="userSpaceOnUse">
<stop stop-color="#1C070C"/>
<stop offset="1" stop-color="#AF131F"/>
</linearGradient>
<linearGradient id="paint3_linear_315_2543" x1="125.405" y1="72.4566" x2="132.825" y2="75.0398" gradientUnits="userSpaceOnUse">
<stop stop-color="#2B090E"/>
<stop offset="1" stop-color="#670911"/>
</linearGradient>
<linearGradient id="paint4_linear_315_2543" x1="63.0603" y1="0.975957" x2="63.5392" y2="5.16098" gradientUnits="userSpaceOnUse">
<stop stop-color="#40090F"/>
<stop offset="1" stop-color="#AE131E"/>
</linearGradient>
<linearGradient id="paint5_linear_315_2543" x1="75.1685" y1="95.4822" x2="80.4067" y2="122.757" gradientUnits="userSpaceOnUse">
<stop stop-color="#16070B"/>
<stop offset="1" stop-color="#5C0C13"/>
</linearGradient>
<linearGradient id="paint6_linear_315_2543" x1="8.48937" y1="100.999" x2="2.01646" y2="76.4017" gradientUnits="userSpaceOnUse">
<stop stop-color="#5D090F"/>
<stop offset="1" stop-color="#720B12"/>
</linearGradient>
<linearGradient id="paint7_linear_315_2543" x1="10.7466" y1="100.312" x2="3.87563" y2="75.8107" gradientUnits="userSpaceOnUse">
<stop stop-color="#5D090F"/>
<stop offset="1" stop-color="#720B12"/>
</linearGradient>
<linearGradient id="paint8_linear_315_2543" x1="83.5764" y1="133.363" x2="57.7512" y2="134.675" gradientUnits="userSpaceOnUse">
<stop stop-color="#260508"/>
<stop offset="1" stop-color="#2F0609"/>
</linearGradient>
<linearGradient id="paint9_linear_315_2543" x1="83.6831" y1="131.813" x2="57.7651" y2="131.807" gradientUnits="userSpaceOnUse">
<stop stop-color="#260508"/>
<stop offset="1" stop-color="#2F0609"/>
</linearGradient>
<linearGradient id="paint10_linear_315_2543" x1="127.59" y1="104.882" x2="136.652" y2="85.4635" gradientUnits="userSpaceOnUse">
<stop stop-color="#2F0609"/>
<stop offset="1" stop-color="#3C070B"/>
</linearGradient>
<linearGradient id="paint11_linear_315_2543" x1="125.699" y1="104.021" x2="134.685" y2="84.567" gradientUnits="userSpaceOnUse">
<stop stop-color="#2F0609"/>
<stop offset="1" stop-color="#3C070B"/>
</linearGradient>
<linearGradient id="paint12_linear_315_2543" x1="119.824" y1="18.1455" x2="128.886" y2="29.7968" gradientUnits="userSpaceOnUse">
<stop stop-color="#780C13"/>
<stop offset="1" stop-color="#6C0B11"/>
</linearGradient>
<linearGradient id="paint13_linear_315_2543" x1="118.788" y1="18.8512" x2="127.552" y2="30.7529" gradientUnits="userSpaceOnUse">
<stop stop-color="#780C13"/>
<stop offset="1" stop-color="#6C0B11"/>
</linearGradient>
</defs>
</svg>
